<svg xmlns="http://www.w3.org/2000/svg" viewBox="0 0 1200 700" role="img" aria-label="Dhika and Sharmi laughing together near the college entrance"><defs><linearGradient id="bg3" x1="0" y1="0" x2="0" y2="1"><stop stop-color="#e2eef2"/><stop offset="1" stop-color="#f5eee5"/></linearGradient><linearGradient id="p3" x1="0" y1="0" x2="1" y2="1"><stop stop-color="#dc8fa8"/><stop offset="1" stop-color="#ad5973"/></linearGradient></defs><rect width="1200" height="700" fill="url(#bg3)"/><rect x="70" y="105" width="1060" height="365" rx="18" fill="#e7e1d6" stroke="#ad9f8b" stroke-width="5"/><rect x="155" y="170" width="210" height="300" fill="#8aa4a1"/><rect x="835" y="170" width="210" height="300" fill="#8aa4a1"/><rect y="470" width="1200" height="230" fill="#d3d0c4"/><g transform="translate(350 105)"><ellipse cx="135" cy="90" rx="47" ry="58" fill="#d89e7b"/><path d="M88 90q8-69 49-70q51 4 51 72q-29-37-100-2" fill="#2b221e"/><path d="M95 155q45-25 87 0l57 313H52z" fill="url(#p3)"/><path d="M75 200q86 52 139 10" fill="none" stroke="#f4cbd6" stroke-width="25"/><path d="M78 469l-10 122M198 469l11 122" stroke="#504942" stroke-width="18" stroke-linecap="round"/><path d="M116 110q15 12 31 0" fill="none" stroke="#8d4f57" stroke-width="5"/></g><g transform="translate(650 115)"><ellipse cx="128" cy="84" rx="46" ry="57" fill="#c99170"/><path d="M83 78q10-66 47-68q48 2 49 71q-34-30-96-3" fill="#33261f"/><path d="M92 149q38-20 76 0l54 306H50z" fill="#62738d"/><path d="M95 152h69v88H95z" fill="#7c4f6b"/><path d="M59 191l-87 46M212 190l-65 39" stroke="#c99170" stroke-width="17" stroke-linecap="round"/><path d="M69 456l-8 128M190 456l9 128" stroke="#44484d" stroke-width="18" stroke-linecap="round"/><path d="M109 104q14 12 31 0" fill="none" stroke="#824941" stroke-width="5"/></g><path d="M641 308q-36 14-73 3" fill="none" stroke="#c99170" stroke-width="15" stroke-linecap="round"/><g font-family="Arial, sans-serif" fill="#33473f"><text x="58" y="56" font-size="29" font-weight="700">College entrance · friendship beat</text><text x="58" y="92" font-size="19">Dhika and Sharmi · playful close-friend banter</text></g></svg>