<svg xmlns="http://www.w3.org/2000/svg" viewBox="0 0 900 1100" role="img" aria-label="Dhika character reference in a full pink cotton saree"><defs><linearGradient id="bg" x1="0" y1="0" x2="1" y2="1"><stop stop-color="#f5efe7"/><stop offset="1" stop-color="#e9f0ea"/></linearGradient><linearGradient id="saree" x1="0" y1="0" x2="1" y2="1"><stop stop-color="#de91aa"/><stop offset=".55" stop-color="#c36f8a"/><stop offset="1" stop-color="#aa5973"/></linearGradient></defs><rect width="900" height="1100" fill="url(#bg)"/><ellipse cx="450" cy="1030" rx="255" ry="34" fill="#cfc7ba" opacity=".65"/><g transform="translate(190 70)"><path d="M175 105q30-102 137-99q112 12 121 117q-15 68-52 96H218q-56-45-43-114" fill="#2d241f"/><ellipse cx="305" cy="147" rx="92" ry="111" fill="#d7a07d"/><path d="M216 140q18-108 93-106q91 6 91 112q-43-60-184-6" fill="#2c231f"/><ellipse cx="273" cy="150" rx="7" ry="5" fill="#382922"/><ellipse cx="339" cy="150" rx="7" ry="5" fill="#382922"/><path d="M288 194q18 14 39 0" fill="none" stroke="#8b4c56" stroke-width="7" stroke-linecap="round"/><path d="M235 254q70-45 142 0l84 670H109z" fill="url(#saree)" stroke="#8e5366" stroke-width="4"/><path d="M193 285q112 88 235 40" fill="none" stroke="#f3c6d2" stroke-width="38" opacity=".9"/><path d="M182 405q90 43 212 11M164 545q124 50 247 8M144 685q135 46 286 4" fill="none" stroke="#efd0d9" stroke-width="10" opacity=".65"/><path d="M240 258v185M370 258v185" stroke="#b8637d" stroke-width="8"/><path d="M186 925l-9 83M390 925l10 83" stroke="#4d463f" stroke-width="22" stroke-linecap="round"/></g><g font-family="Arial, sans-serif" fill="#2f463d"><text x="60" y="60" font-size="30" font-weight="700">Dhika · college character reference</text><text x="60" y="96" font-size="20">Full pink cotton saree · loose curls · conservative professional styling</text></g></svg>